# xmcd
#
# Track frame offsets:
#	150
#	15392
#	38990
#	50517
#	61275
#	79290
#	105620
#	121245
#	132725
#	148810
#	158120
#	170377
#	189767
#	200600
#	216005
#	230850
#	247445
#	263377
#
# Disc length: 3692 seconds
# Revision: 0
# Processed by: cddbd v1.5.2PL0 Copyright (c) Steve Scherf et al.
# Submitted via: dBpowerAMP V12.0
#
DISCID=070e6a12
DTITLE=Various Artist - Jazz With Prestige [CD4 - Trouble an' Blues - The Bluesville Sessions - 1959-66)
DYEAR=1996
DGENRE=Blues
TTITLE0=Memphis Slim - Blues Is Troubles
TTITLE1=Brownie McGhee with Sonny Terry - Everyday I Have the Blues
TTITLE2=James Cotton - Straighten Up
TTITLE3=Jimmy Witherspoon - Trouble in Mind
TTITLE4=Reverend Gary Davis - Say No to the Devil
TTITLE5=Furry Lewis - John Henry
TTITLE6=Big Joe Williams - Baby, I Ain't Gonna Let You Go
TTITLE7=Willie Dixon and Memphis Slim - Built for Comfort
TTITLE8=Alberta Hunter - Chirpin' the Blues
TTITLE9=Roosevelt Sykes - Set the Meat Outdoors
TTITLE10=Otis Spann - Must Have Been the Devil
TTITLE11=Al Smith - Night Time Is the Right Time
TTITLE12=Brother Montgomery - No Special Rider
TTITLE13=Curtis Jones - Lonesome Bedroom Blues
TTITLE14=Shakey Jake - Good Times
TTITLE15=Blind Snooks Eaglin - Brown Skinned Woman
TTITLE16=Lonnie Johnson and Victoria Spivey - Idle Hours
TTITLE17=Lightnin' Hopkins - Wine Spodee-O-Dee
EXTD=
EXTT0=
EXTT1=
EXTT2=
EXTT3=
EXTT4=
EXTT5=
EXTT6=
EXTT7=
EXTT8=
EXTT9=
EXTT10=
EXTT11=
EXTT12=
EXTT13=
EXTT14=
EXTT15=
EXTT16=
EXTT17=
PLAYORDER=
